# xmcd CD database file generated by OrangeCD 6.3
#
# Track frame offsets:
#	150
#	12885
#	27907
#	47713
#	72205
#	88865
#	113992
#	129563
#	143683
#	166631
#	182189
#	191218
#	216083
#	237749
#
# Disc length: 3376 seconds
#
# Revision: 2
# Processed by: cddbd v1.5.2PL0 Copyright (c) Steve Scherf et al.
# Submitted via: OrangeCD 6.3
#
DISCID=c80d2e0e
DTITLE=Gwiazdy Polskiej Muzyki Lat 80 - vol.25 Irek Dudek
DYEAR=2007
DGENRE=Blues
TTITLE0=Au szalalala
TTITLE1=Zastanow sie, co robisz
TTITLE2=Och, Ziuta
TTITLE3=Something Must Have Changed
TTITLE4=Wykonaj to wlasnorecznie
TTITLE5=A jezeli moj dobry Boze
TTITLE6=Kameralny blues
TTITLE7=To ty slodka
TTITLE8=Dudi Boogie
TTITLE9=Bzyk, bzyk
TTITLE10=Za dziesiec trzynasta
TTITLE11=The Blues
TTITLE12=Straight Blues
TTITLE13=Przebierka
EXTD=
EXTT0=
EXTT1=
EXTT2=
EXTT3=
EXTT4=
EXTT5=
EXTT6=
EXTT7=
EXTT8=
EXTT9=
EXTT10=
EXTT11=
EXTT12=
EXTT13=
PLAYORDER=
